<svg width="11" height="12" viewBox="0 0 11 12" fill="none" xmlns="http://www.w3.org/2000/svg">
<path d="M1.16667 11.6667C0.845833 11.6667 0.571181 11.5524 0.342708 11.324C0.114236 11.0955 0 10.8208 0 10.5V2.33333C0 2.0125 0.114236 1.73785 0.342708 1.50937C0.571181 1.2809 0.845833 1.16667 1.16667 1.16667H3.61667C3.74306 0.816667 3.95451 0.534722 4.25104 0.320833C4.54757 0.106944 4.88056 0 5.25 0C5.61944 0 5.95243 0.106944 6.24896 0.320833C6.54549 0.534722 6.75694 0.816667 6.88333 1.16667H9.33333C9.65417 1.16667 9.92882 1.2809 10.1573 1.50937C10.3858 1.73785 10.5 2.0125 10.5 2.33333V10.5C10.5 10.8208 10.3858 11.0955 10.1573 11.324C9.92882 11.5524 9.65417 11.6667 9.33333 11.6667H1.16667ZM1.16667 10.5H9.33333V2.33333H1.16667V10.5ZM2.33333 9.33333H6.41667V8.16667H2.33333V9.33333ZM2.33333 7H8.16667V5.83333H2.33333V7ZM2.33333 4.66667H8.16667V3.5H2.33333V4.66667ZM5.25 1.89583C5.37639 1.89583 5.4809 1.85451 5.56354 1.77188C5.64618 1.68924 5.6875 1.58472 5.6875 1.45833C5.6875 1.33194 5.64618 1.22743 5.56354 1.14479C5.4809 1.06215 5.37639 1.02083 5.25 1.02083C5.12361 1.02083 5.0191 1.06215 4.93646 1.14479C4.85382 1.22743 4.8125 1.33194 4.8125 1.45833C4.8125 1.58472 4.85382 1.68924 4.93646 1.77188C5.0191 1.85451 5.12361 1.89583 5.25 1.89583ZM1.16667 10.5V2.33333V10.5Z" fill="#191C1E"/>
</svg>
