<svg width="48" height="48" viewBox="0 0 48 48" fill="none" xmlns="http://www.w3.org/2000/svg">
<rect width="48" height="48" rx="4" fill="#D6E3FF"/>
<path d="M33.0001 23.05V31C33.0001 31.55 32.8042 32.0208 32.4126 32.4125C32.0209 32.8042 31.5501 33 31.0001 33H17.0001C16.4501 33 15.9792 32.8042 15.5876 32.4125C15.1959 32.0208 15.0001 31.55 15.0001 31V23.05C14.6167 22.7 14.3209 22.25 14.1126 21.7C13.9042 21.15 13.9001 20.55 14.1001 19.9L15.1501 16.5C15.2834 16.0667 15.5209 15.7083 15.8626 15.425C16.2042 15.1417 16.6001 15 17.0501 15H30.9501C31.4001 15 31.7917 15.1375 32.1251 15.4125C32.4584 15.6875 32.7001 16.05 32.8501 16.5L33.9001 19.9C34.1001 20.55 34.0959 21.1417 33.8876 21.675C33.6792 22.2083 33.3834 22.6667 33.0001 23.05ZM26.2001 22C26.6501 22 26.9917 21.8458 27.2251 21.5375C27.4584 21.2292 27.5501 20.8833 27.5001 20.5L26.9501 17H25.0001V20.7C25.0001 21.05 25.1167 21.3542 25.3501 21.6125C25.5834 21.8708 25.8667 22 26.2001 22ZM21.7001 22C22.0834 22 22.3959 21.8708 22.6376 21.6125C22.8792 21.3542 23.0001 21.05 23.0001 20.7V17H21.0501L20.5001 20.5C20.4334 20.9 20.5209 21.25 20.7626 21.55C21.0042 21.85 21.3167 22 21.7001 22ZM17.2501 22C17.5501 22 17.8126 21.8917 18.0376 21.675C18.2626 21.4583 18.4001 21.1833 18.4501 20.85L19.0001 17H17.0501L16.0501 20.35C15.9501 20.6833 16.0042 21.0417 16.2126 21.425C16.4209 21.8083 16.7667 22 17.2501 22ZM30.7501 22C31.2334 22 31.5834 21.8083 31.8001 21.425C32.0167 21.0417 32.0667 20.6833 31.9501 20.35L30.9001 17H29.0001L29.5501 20.85C29.6001 21.1833 29.7376 21.4583 29.9626 21.675C30.1876 21.8917 30.4501 22 30.7501 22ZM17.0001 31H31.0001V23.95C30.9167 23.9833 30.8626 24 30.8376 24C30.8126 24 30.7834 24 30.7501 24C30.3001 24 29.9042 23.925 29.5626 23.775C29.2209 23.625 28.8834 23.3833 28.5501 23.05C28.2501 23.35 27.9084 23.5833 27.5251 23.75C27.1417 23.9167 26.7334 24 26.3001 24C25.8501 24 25.4292 23.9167 25.0376 23.75C24.6459 23.5833 24.3001 23.35 24.0001 23.05C23.7167 23.35 23.3876 23.5833 23.0126 23.75C22.6376 23.9167 22.2334 24 21.8001 24C21.3167 24 20.8792 23.9167 20.4876 23.75C20.0959 23.5833 19.7501 23.35 19.4501 23.05C19.1001 23.4 18.7542 23.6458 18.4126 23.7875C18.0709 23.9292 17.6834 24 17.2501 24C17.2167 24 17.1792 24 17.1376 24C17.0959 24 17.0501 23.9833 17.0001 23.95V31ZM31.0001 31H17.0001C17.0501 31 17.0959 31 17.1376 31C17.1792 31 17.2167 31 17.2501 31C17.6834 31 18.0709 31 18.4126 31C18.7542 31 19.1001 31 19.4501 31C19.6001 31 19.7626 31 19.9376 31C20.1126 31 20.3001 31 20.5001 31C20.7001 31 20.9084 31 21.1251 31C21.3417 31 21.5667 31 21.8001 31C22.0167 31 22.2251 31 22.4251 31C22.6251 31 22.8209 31 23.0126 31C23.2042 31 23.3834 31 23.5501 31C23.7167 31 23.8667 31 24.0001 31C24.3001 31 24.6459 31 25.0376 31C25.4292 31 25.8501 31 26.3001 31C26.5167 31 26.7251 31 26.9251 31C27.1251 31 27.3209 31 27.5126 31C27.7042 31 27.8876 31 28.0626 31C28.2376 31 28.4001 31 28.5501 31C28.8834 31 29.2209 31 29.5626 31C29.9042 31 30.3001 31 30.7501 31C30.7834 31 30.8126 31 30.8376 31C30.8626 31 30.9167 31 31.0001 31Z" fill="#39475F"/>
</svg>
