<svg width="12" height="12" viewBox="0 0 12 12" fill="none" xmlns="http://www.w3.org/2000/svg">
<path d="M5.83333 11.6667C5.02639 11.6667 4.26806 11.5135 3.55833 11.2073C2.84861 10.901 2.23125 10.4854 1.70625 9.96042C1.18125 9.43542 0.765625 8.81806 0.459375 8.10833C0.153125 7.39861 0 6.64028 0 5.83333H1.16667C1.16667 6.475 1.28819 7.08021 1.53125 7.64896C1.77431 8.21771 2.10729 8.71354 2.53021 9.13646C2.95312 9.55937 3.44896 9.89479 4.01771 10.1427C4.58646 10.3906 5.19167 10.5146 5.83333 10.5146C7.13611 10.5146 8.23958 10.0625 9.14375 9.15833C10.0479 8.25417 10.5 7.15069 10.5 5.84792C10.5 4.54514 10.0479 3.44167 9.14375 2.5375C8.23958 1.63333 7.13611 1.18125 5.83333 1.18125C4.96806 1.18125 4.18299 1.39271 3.47813 1.81562C2.77326 2.23854 2.21667 2.8 1.80833 3.5H3.5V4.66667H0V1.16667H1.16667V2.33333C1.70139 1.62361 2.37222 1.05729 3.17917 0.634375C3.98611 0.211458 4.87083 0 5.83333 0C6.64028 0 7.39861 0.153125 8.10833 0.459375C8.81806 0.765625 9.43542 1.18125 9.96042 1.70625C10.4854 2.23125 10.901 2.84861 11.2073 3.55833C11.5135 4.26806 11.6667 5.02639 11.6667 5.83333C11.6667 6.64028 11.5135 7.39861 11.2073 8.10833C10.901 8.81806 10.4854 9.43542 9.96042 9.96042C9.43542 10.4854 8.81806 10.901 8.10833 11.2073C7.39861 11.5135 6.64028 11.6667 5.83333 11.6667ZM4.66667 8.16667C4.50139 8.16667 4.36285 8.11076 4.25104 7.99896C4.13924 7.88715 4.08333 7.74861 4.08333 7.58333V5.83333C4.08333 5.66806 4.13924 5.52951 4.25104 5.41771C4.36285 5.3059 4.50139 5.25 4.66667 5.25V4.66667C4.66667 4.34583 4.7809 4.07118 5.00938 3.84271C5.23785 3.61424 5.5125 3.5 5.83333 3.5C6.15417 3.5 6.42882 3.61424 6.65729 3.84271C6.88576 4.07118 7 4.34583 7 4.66667V5.25C7.16528 5.25 7.30382 5.3059 7.41563 5.41771C7.52743 5.52951 7.58333 5.66806 7.58333 5.83333V7.58333C7.58333 7.74861 7.52743 7.88715 7.41563 7.99896C7.30382 8.11076 7.16528 8.16667 7 8.16667H4.66667ZM5.25 5.25H6.41667V4.66667C6.41667 4.50139 6.36076 4.36285 6.24896 4.25104C6.13715 4.13924 5.99861 4.08333 5.83333 4.08333C5.66806 4.08333 5.52951 4.13924 5.41771 4.25104C5.3059 4.36285 5.25 4.50139 5.25 4.66667V5.25Z" fill="#44474D"/>
</svg>
