<svg width="48" height="48" viewBox="0 0 48 48" fill="none" xmlns="http://www.w3.org/2000/svg">
<rect width="48" height="48" rx="4" fill="#FDD39E"/>
<path d="M19 31C18.1667 31 17.4583 30.7083 16.875 30.125C16.2917 29.5417 16 28.8333 16 28H14V25C14 23.9 14.3917 22.9583 15.175 22.175C15.9583 21.3917 16.9 21 18 21H22V26H25.5L29 21.65V19H26V17H29C29.55 17 30.0208 17.1958 30.4125 17.5875C30.8042 17.9792 31 18.45 31 19V22.35L26.5 28H22C22 28.8333 21.7083 29.5417 21.125 30.125C20.5417 30.7083 19.8333 31 19 31ZM19 29C19.2833 29 19.5208 28.9042 19.7125 28.7125C19.9042 28.5208 20 28.2833 20 28H18C18 28.2833 18.0958 28.5208 18.2875 28.7125C18.4792 28.9042 18.7167 29 19 29ZM17 20V18H22V20H17ZM31 31C30.1667 31 29.4583 30.7083 28.875 30.125C28.2917 29.5417 28 28.8333 28 28C28 27.1667 28.2917 26.4583 28.875 25.875C29.4583 25.2917 30.1667 25 31 25C31.8333 25 32.5417 25.2917 33.125 25.875C33.7083 26.4583 34 27.1667 34 28C34 28.8333 33.7083 29.5417 33.125 30.125C32.5417 30.7083 31.8333 31 31 31ZM31 29C31.2833 29 31.5208 28.9042 31.7125 28.7125C31.9042 28.5208 32 28.2833 32 28C32 27.7167 31.9042 27.4792 31.7125 27.2875C31.5208 27.0958 31.2833 27 31 27C30.7167 27 30.4792 27.0958 30.2875 27.2875C30.0958 27.4792 30 27.7167 30 28C30 28.2833 30.0958 28.5208 30.2875 28.7125C30.4792 28.9042 30.7167 29 31 29ZM16 26H20V23H18C17.45 23 16.9792 23.1958 16.5875 23.5875C16.1958 23.9792 16 24.45 16 25V26Z" fill="#785A2E"/>
</svg>
