<svg width="10" height="9" viewBox="0 0 10 9" fill="none" xmlns="http://www.w3.org/2000/svg">
<path d="M0.960052 8.82001L0.360066 8.22002L8.41608 0.180007L9.01607 0.775992L0.960052 8.82001ZM7.21607 9.00001C6.82007 9.00001 6.45907 8.90301 6.13307 8.70901C5.80707 8.51501 5.54607 8.25501 5.35007 7.92901C5.15407 7.60301 5.05607 7.24001 5.05607 6.84001C5.05607 6.44801 5.15607 6.08801 5.35607 5.76001C5.55607 5.43201 5.82007 5.17001 6.14807 4.97401C6.47607 4.77801 6.83207 4.68001 7.21607 4.68001C7.61207 4.68001 7.97407 4.77701 8.30207 4.97101C8.63007 5.16501 8.89107 5.42501 9.08507 5.75101C9.27907 6.07701 9.37607 6.44001 9.37607 6.84001C9.37607 7.24001 9.27907 7.60301 9.08507 7.92901C8.89107 8.25501 8.63007 8.51501 8.30207 8.70901C7.97407 8.90301 7.61207 9.00001 7.21607 9.00001ZM7.2157 8.20403C7.46262 8.20403 7.68974 8.14202 7.89708 8.01802C8.10441 7.89402 8.27008 7.72839 8.39408 7.52112C8.51808 7.31386 8.58008 7.08686 8.58008 6.84012C8.58008 6.59337 8.51808 6.36633 8.39408 6.159C8.27008 5.95166 8.10445 5.78599 7.89718 5.66199C7.68992 5.53799 7.46292 5.47599 7.21617 5.47599C6.96943 5.47599 6.74306 5.53799 6.53706 5.66199C6.33106 5.78599 6.16539 5.95163 6.04005 6.15889C5.91472 6.36615 5.85205 6.59316 5.85205 6.8399C5.85205 7.08664 5.91472 7.31368 6.04005 7.52102C6.16539 7.72835 6.33093 7.89402 6.53669 8.01802C6.74245 8.14202 6.96879 8.20403 7.2157 8.20403ZM2.16007 4.32001C1.76407 4.32001 1.40207 4.22301 1.07407 4.02901C0.746066 3.83501 0.485066 3.57501 0.291066 3.24901C0.0970664 2.92301 6.63903e-05 2.56001 6.63903e-05 2.16001C6.63903e-05 1.76801 0.100066 1.40801 0.300066 1.08001C0.500066 0.752007 0.764066 0.490007 1.09207 0.294007C1.42007 0.0980072 1.77607 7.15256e-06 2.16007 7.15256e-06C2.55607 7.15256e-06 2.91707 0.0970073 3.24307 0.291008C3.56907 0.485007 3.83007 0.745007 4.02607 1.07101C4.22207 1.39701 4.32007 1.76001 4.32007 2.16001C4.32007 2.56001 4.22207 2.92301 4.02607 3.24901C3.83007 3.57501 3.56907 3.83501 3.24307 4.02901C2.91707 4.22301 2.55607 4.32001 2.16007 4.32001ZM2.1597 3.52403C2.40662 3.52403 2.63374 3.46202 2.84108 3.33802C3.04841 3.21402 3.21408 3.04839 3.33808 2.84113C3.46208 2.63386 3.52408 2.40686 3.52408 2.16012C3.52408 1.91337 3.46208 1.68633 3.33808 1.479C3.21408 1.27166 3.04845 1.10599 2.84118 0.981992C2.63392 0.85799 2.40692 0.79599 2.16018 0.79599C1.91343 0.79599 1.68706 0.85799 1.48106 0.981992C1.27505 1.10599 1.10939 1.27163 0.984051 1.47889C0.858716 1.68615 0.796049 1.91316 0.796049 2.1599C0.796049 2.40664 0.858716 2.63368 0.984051 2.84102C1.10939 3.04835 1.27493 3.21402 1.48069 3.33802C1.68645 3.46202 1.91279 3.52403 2.1597 3.52403Z" fill="#44474D"/>
</svg>
